<?xml version="1.0" standalone="no"?>
<!DOCTYPE svg PUBLIC "-//W3C//DTD SVG 20010904//EN"
 "http://www.w3.org/TR/2001/REC-SVG-20010904/DTD/svg10.dtd">
<svg version="1.0" xmlns="http://www.w3.org/2000/svg"
 width="271.000000pt" height="271.000000pt" viewBox="0 0 271.000000 271.000000"
 preserveAspectRatio="xMidYMid meet">

<g transform="translate(0.000000,271.000000) scale(0.100000,-0.100000)"
fill="#000000" stroke="none">
<path d="M174 2689 c-67 -25 -129 -88 -154 -156 -20 -53 -20 -79 -20 -1178 0
-1104 0 -1125 20 -1178 26 -70 88 -131 157 -157 53 -20 79 -20 1178 -20 1099
0 1125 0 1178 20 69 26 131 87 157 157 20 53 20 74 20 1178 0 1099 0 1125 -20
1178 -26 69 -87 131 -157 157 -53 20 -74 20 -1181 19 -1096 0 -1128 -1 -1178
-20z m1196 -450 c245 -30 411 -121 480 -262 72 -149 55 -363 -40 -501 -43 -64
-138 -147 -210 -185 -36 -19 -66 -35 -68 -36 -1 -1 5 -22 13 -46 9 -24 34
-109 56 -188 46 -165 62 -207 91 -238 48 -51 96 -26 260 134 98 96 132 124
149 121 28 -4 42 -46 35 -110 -16 -152 -212 -353 -406 -418 -97 -32 -202 -26
-262 15 -75 53 -111 154 -138 385 -12 99 -37 263 -46 291 -2 9 -24 24 -49 33
-24 10 -58 33 -75 53 -26 29 -31 42 -28 76 2 34 9 45 36 64 45 30 125 39 181
19 54 -18 65 -12 122 64 51 68 64 115 64 230 0 111 -18 155 -85 213 -67 57
-127 70 -298 65 -169 -5 -223 -20 -401 -107 -106 -52 -157 -63 -167 -36 -25
64 107 201 271 283 158 79 323 105 515 81z m-258 -394 c19 -69 -7 -237 -84
-535 l-51 -195 -6 -245 c-4 -179 -10 -252 -20 -270 -27 -49 -65 -80 -137 -110
-122 -51 -172 -37 -199 52 -57 194 54 714 235 1094 78 164 156 248 224 242 23
-2 31 -9 38 -33z"/>
</g>
</svg>
