<?xml version="1.0" standalone="no"?>
<!DOCTYPE svg PUBLIC "-//W3C//DTD SVG 20010904//EN"
 "http://www.w3.org/TR/2001/REC-SVG-20010904/DTD/svg10.dtd">
<svg version="1.0" xmlns="http://www.w3.org/2000/svg"
 width="54.000000pt" height="54.000000pt" viewBox="0 0 54.000000 54.000000"
 preserveAspectRatio="xMidYMid meet">

<g transform="translate(0.000000,54.000000) scale(0.100000,-0.100000)"
fill="#000000" stroke="none">
<path d="M227 483 c24 -2 62 -2 85 0 24 2 5 4 -42 4 -47 0 -66 -2 -43 -4z"/>
<path d="M154 468 c-4 -7 -10 -28 -14 -48 -4 -26 -11 -36 -28 -38 -27 -4 -29
-32 -2 -39 22 -6 27 -32 9 -50 -14 -14 5 -53 26 -53 20 0 19 -14 -1 -31 -26
-21 -54 -86 -54 -124 l0 -35 180 0 180 0 0 35 c0 38 -28 103 -54 124 -20 17
-21 31 -1 31 21 0 40 39 26 53 -18 18 -13 44 9 50 27 7 25 35 -2 39 -17 2 -24
12 -28 38 -7 41 -17 60 -31 60 -6 0 -3 -7 5 -16 9 -8 16 -22 16 -30 0 -11 -23
-14 -120 -14 -97 0 -120 3 -120 14 0 8 7 22 16 30 8 9 11 16 5 16 -5 0 -13 -5
-17 -12z m234 -70 c-6 -18 -230 -18 -235 0 -4 9 24 12 117 12 93 0 121 -3 118
-12z m52 -38 c0 -6 -63 -10 -170 -10 -107 0 -170 4 -170 10 0 6 63 10 170 10
107 0 170 -4 170 -10z m-265 -30 c-3 -5 -13 -10 -21 -10 -8 0 -14 5 -14 10 0
6 9 10 21 10 11 0 17 -4 14 -10z m183 -2 c7 -7 12 -34 12 -61 0 -40 -5 -53
-29 -77 -25 -25 -35 -29 -76 -26 -65 4 -95 37 -95 105 0 26 5 52 12 59 7 7 42
12 88 12 46 0 81 -5 88 -12z m42 2 c0 -5 -6 -10 -14 -10 -8 0 -18 5 -21 10 -3
6 3 10 14 10 12 0 21 -4 21 -10z m-250 -52 c0 -30 -1 -31 -17 -16 -13 14 -14
20 -3 32 18 22 20 20 20 -16z m257 -15 c-16 -16 -17 -15 -17 17 0 32 1 33 17
17 16 -16 16 -18 0 -34z m-161 -133 l21 -24 54 52 54 53 27 -30 c30 -34 47
-96 30 -113 -8 -8 -15 -8 -25 0 -10 8 -17 8 -24 1 -7 -7 -28 -9 -55 -5 -53 8
-63 8 -116 0 -25 -4 -48 -2 -55 5 -10 8 -17 7 -25 -1 -9 -9 -15 -9 -23 -1 -17
17 -2 78 28 113 l26 31 31 -28 c17 -15 41 -39 52 -53z m42 8 c-3 -7 -11 -13
-18 -13 -7 0 -15 6 -17 13 -3 7 4 12 17 12 13 0 20 -5 18 -12z"/>
<path d="M218 303 c6 -2 18 -2 25 0 6 3 1 5 -13 5 -14 0 -19 -2 -12 -5z"/>
<path d="M298 303 c6 -2 18 -2 25 0 6 3 1 5 -13 5 -14 0 -19 -2 -12 -5z"/>
</g>
</svg>
